<mxfile host="Electron" modified="2023-10-22T11:52:15.000Z" agent="Mozilla/5.0 (Macintosh; Intel Mac OS X 10_15_7) AppleWebKit/537.36 (KHTML, like Gecko) draw.io/22.0.3 Chrome/114.0.5735.289 Electron/25.8.4 Safari/537.36" etag="Zx4Os1cvCecjIbdaWfWb" version="22.0.3" type="device">
  <diagram name="Page-1" id="jcbD5wINgOC0ulY_2iBD">
    <mxGraphModel dx="1114" dy="878" grid="1" gridSize="10" guides="1" tooltips="1" connect="1" arrows="1" fold="1" page="1" pageScale="1" pageWidth="827" pageHeight="1169" math="0" shadow="0">
      <root>
        <mxCell id="0" />
        <mxCell id="1" parent="0" />
        <mxCell id="6LgruMrmvrGkM03GGwKN-5" style="edgeStyle=orthogonalEdgeStyle;rounded=0;orthogonalLoop=1;jettySize=auto;html=1;entryX=0;entryY=0.5;entryDx=0;entryDy=0;" parent="1" target="6LgruMrmvrGkM03GGwKN-2" edge="1">
          <mxGeometry relative="1" as="geometry">
            <mxPoint x="220" y="415" as="sourcePoint" />
          </mxGeometry>
        </mxCell>
        <mxCell id="6LgruMrmvrGkM03GGwKN-1" value="Mécanisme" style="ellipse;shape=cloud;whiteSpace=wrap;html=1;" parent="1" vertex="1">
          <mxGeometry x="100" y="360" width="150" height="110" as="geometry" />
        </mxCell>
        <mxCell id="6LgruMrmvrGkM03GGwKN-6" style="edgeStyle=orthogonalEdgeStyle;rounded=0;orthogonalLoop=1;jettySize=auto;html=1;" parent="1" source="6LgruMrmvrGkM03GGwKN-2" target="6LgruMrmvrGkM03GGwKN-4" edge="1">
          <mxGeometry relative="1" as="geometry" />
        </mxCell>
        <mxCell id="6LgruMrmvrGkM03GGwKN-2" value="Squelette" style="rounded=1;whiteSpace=wrap;html=1;" parent="1" vertex="1">
          <mxGeometry x="280" y="385" width="120" height="60" as="geometry" />
        </mxCell>
        <mxCell id="6LgruMrmvrGkM03GGwKN-3" value="Modélisation" style="rounded=1;whiteSpace=wrap;html=1;" parent="1" vertex="1">
          <mxGeometry x="620" y="385" width="120" height="60" as="geometry" />
        </mxCell>
        <mxCell id="6LgruMrmvrGkM03GGwKN-7" style="edgeStyle=orthogonalEdgeStyle;rounded=0;orthogonalLoop=1;jettySize=auto;html=1;" parent="1" source="6LgruMrmvrGkM03GGwKN-4" target="6LgruMrmvrGkM03GGwKN-3" edge="1">
          <mxGeometry relative="1" as="geometry" />
        </mxCell>
        <mxCell id="6LgruMrmvrGkM03GGwKN-4" value="Conception" style="shape=cube;whiteSpace=wrap;html=1;boundedLbl=1;backgroundOutline=1;darkOpacity=0.05;darkOpacity2=0.1;" parent="1" vertex="1">
          <mxGeometry x="450" y="375" width="120" height="80" as="geometry" />
        </mxCell>
      </root>
    </mxGraphModel>
  </diagram>
</mxfile>
